Note: This torrent contains both a DVD ISO and an MP4 Video of the concert so I suggest you select whichever you prefer.

BBC Proms, Number 24
Recorded 2 August
Broadcast BBC4 4 August
Thanks to GringoLoco & the BBC

Elgar:
There is sweet music (4 mins)

Elgar:
Violin Concerto (50 mins)
Tasmin Little: violin

Short Interval

Grainger:
Irish Tune from County Derry (4 mins)

Grainger:
Suite 'In a Nutshell' (20 mins)

R. Strauss:
Till Eulenspiegels lustige Streiche (15 mins)

BBC Singers
BBC Symphony Orchestra
Sir Andrew Davis: conductor

****************************************************

Format: DVD ISO PAL
Runtime: 1:49

Video
ID : 224 (0xE0)
Format : MPEG Video
Format version : Version 2
Format profile : Main@Main
Format settings, BVOP : Yes
Format settings, Matrix : Default
Bit rate mode : Variable
Bit rate : 3 831 Kbps
Nominal bit rate : 9 544 Kbps
Width : 720 pixels
Height : 576 pixels
Display aspect ratio : 16:9
Frame rate : 25.000 fps
Standard : PAL
Color space : YUV
Chroma subsampling : 4:2:0
Bit depth : 8 bits
Scan type : Interlaced
Scan order : Top Field First
Compression mode : Lossy
Bits/(Pixel*Frame) : 0.369

Audio
ID : 192 (0xC0)
Format : MPEG Audio
Format version : Version 1
Format profile : Layer 2
Bit rate mode : Constant
Bit rate : 256 Kbps
Channel(s) : 2 channels
Sampling rate : 48.0 KHz
Compression mode : Lossy

*************************************************

Format: MP4 468p
Runtime: 1:49

Format profile : Base Media
Codec ID : isom
File size : 1.15 GiB
Duration : 1h 49mn
Overall bit rate : 1 503 Kbps
Writing application : Lavf52.93.0

Video
ID : 1
Format : AVC
Format/Info : Advanced Video Codec
Format profile : Main@L3.0
Format settings, CABAC : Yes
Format settings, ReFrames : 4 frames
Codec ID : avc1
Codec ID/Info : Advanced Video Coding
Duration : 1h 49mn
Bit rate mode : Constant
Bit rate : 1 404 Kbps
Width : 832 pixels
Height : 468 pixels
Display aspect ratio : 16:9
Frame rate mode : Constant
Frame rate : 25.000 fps
Standard : PAL
Color space : YUV
Chroma subsampling : 4:2:0
Bit depth : 8 bits
Scan type : Progressive
Bits/(Pixel*Frame) : 0.144
Stream size : 1.07 GiB (93%)

Audio
ID : 2
Format : AAC
Format/Info : Advanced Audio Codec
Format profile : HE-AAC / LC
Codec ID : 40
Duration : 1h 49mn
Bit rate mode : Variable
Bit rate : 96.0 Kbps
Channel(s) : 2 channels
Channel positions : Front: L R
Sampling rate : 48.0 KHz / 24.0 KHz
Compression mode : Lossy
Stream size : 74.3 MiB (6%)